<svg xmlns="http://www.w3.org/2000/svg" xmlns:xlink="http://www.w3.org/1999/xlink" contentStyleType="text/css" data-diagram-type="CLASS" height="683.5417px" preserveAspectRatio="none" style="width:1664px;height:683px;background:#FFFFFF;" version="1.1" viewBox="0 0 1664 683" width="1664.5833px" zoomAndPan="magnify"><defs/><g><!--class SimuladorDeCompra--><g class="entity" data-entity="SimuladorDeCompra" data-source-line="11" data-uid="ent0002" id="entity_SimuladorDeCompra"><rect fill="#F1F1F1" height="80.7458" rx="4.4271" ry="4.4271" style="stroke:#181818;stroke-width:0.8854;" width="276.9348" x="756.1458" y="21.25"/><text fill="#000000" font-family="Arial" font-size="21.25" lengthAdjust="spacing" textLength="198.4094" x="795.4085" y="50.0364">SimuladorDeCompra</text><line style="stroke:#181818;stroke-width:0.8854;" x1="757.9167" x2="1031.3098" y1="63.3938" y2="63.3938"/><text fill="#000000" font-family="Arial" font-size="21.25" lengthAdjust="spacing" textLength="255.6848" x="766.7708" y="90.4093">+main(args : String[]) : void</text></g><!--class Calculavel--><g class="entity" data-entity="Calculavel" data-source-line="15" data-uid="ent0003" id="entity_Calculavel"><rect fill="#F1F1F1" height="129.6167" rx="4.4271" ry="4.4271" style="stroke:#181818;stroke-width:0.8854;" width="252.1674" x="513.5417" y="166.4583"/><text fill="#000000" font-family="Arial" font-size="21.25" font-style="italic" lengthAdjust="spacing" textLength="105.1398" x="587.0555" y="195.2448">&#171;interface&#187;</text><text fill="#000000" font-family="Arial" font-size="21.25" font-style="italic" lengthAdjust="spacing" textLength="98.0322" x="590.6092" y="219.6802">Calculavel</text><line style="stroke:#181818;stroke-width:0.8854;" x1="515.3125" x2="763.9382" y1="233.0375" y2="233.0375"/><text fill="#000000" font-family="Arial" font-size="21.25" lengthAdjust="spacing" textLength="230.9174" x="524.1667" y="260.0531">+calcularValor() : double</text><text fill="#000000" font-family="Arial" font-size="21.25" lengthAdjust="spacing" textLength="223.7994" x="524.1667" y="284.4885">+getDescricao() : String</text></g><!--class Pedido--><g class="entity" data-entity="Pedido" data-source-line="20" data-uid="ent0004" id="entity_Pedido"><rect fill="#F1F1F1" height="119.3479" rx="4.4271" ry="4.4271" style="stroke:#181818;stroke-width:0.8854;" width="397.4207" x="10.625" y="359.4792"/><text fill="#000000" font-family="Arial" font-size="21.25" lengthAdjust="spacing" textLength="66.1676" x="176.2515" y="388.2656">Pedido</text><line style="stroke:#181818;stroke-width:0.8854;" x1="12.3958" x2="406.2748" y1="401.6229" y2="401.6229"/><text fill="#000000" font-family="Arial" font-size="21.25" lengthAdjust="spacing" textLength="235.0574" x="21.25" y="428.6385">-itens : List&lt;ItemPedido&gt;</text><line style="stroke:#181818;stroke-width:0.8854;" x1="12.3958" x2="406.2748" y1="440.225" y2="440.225"/><text fill="#000000" font-family="Arial" font-size="21.25" lengthAdjust="spacing" textLength="376.1707" x="21.25" y="467.2406">+adicionarItem(item : ItemPedido) : void</text></g><!--class ItemPedido--><g class="entity" data-entity="ItemPedido" data-source-line="25" data-uid="ent0005" id="entity_ItemPedido"><rect fill="#F1F1F1" height="129.6167" rx="4.4271" ry="4.4271" style="stroke:#181818;stroke-width:0.8854;" width="173.6523" x="30.1042" y="541.875"/><text fill="#000000" font-family="Arial" font-size="21.25" lengthAdjust="spacing" textLength="107.4951" x="63.1828" y="570.6614">ItemPedido</text><line style="stroke:#181818;stroke-width:0.8854;" x1="31.875" x2="201.9857" y1="584.0188" y2="584.0188"/><text fill="#000000" font-family="Arial" font-size="21.25" lengthAdjust="spacing" textLength="133.4558" x="40.7292" y="611.0343">-nome : String</text><text fill="#000000" font-family="Arial" font-size="21.25" lengthAdjust="spacing" textLength="141.7566" x="40.7292" y="635.4698">-preco : double</text><text fill="#000000" font-family="Arial" font-size="21.25" lengthAdjust="spacing" textLength="152.4023" x="40.7292" y="659.9052">-quantidade : int</text></g><!--class PedidoDecorator--><g class="entity" data-entity="PedidoDecorator" data-source-line="31" data-uid="ent0006" id="entity_PedidoDecorator"><rect fill="#F1F1F1" height="80.7458" rx="4.4271" ry="4.4271" style="stroke:#181818;stroke-width:0.8854;" width="212.6245" x="533.0208" y="378.0729"/><text fill="#000000" font-family="Arial" font-size="21.25" font-style="italic" lengthAdjust="spacing" textLength="159.4684" x="559.5989" y="406.8593">PedidoDecorator</text><line style="stroke:#181818;stroke-width:0.8854;" x1="534.7917" x2="743.8745" y1="420.2167" y2="420.2167"/><text fill="#000000" font-family="Arial" font-size="21.25" lengthAdjust="spacing" textLength="191.3745" x="543.6458" y="447.2323">#pedido : Calculavel</text></g><!--class TaxaFrete--><g class="entity" data-entity="TaxaFrete" data-source-line="35" data-uid="ent0007" id="entity_TaxaFrete"><rect fill="#F1F1F1" height="42.1438" rx="4.4271" ry="4.4271" style="stroke:#181818;stroke-width:0.8854;" width="107.464" x="236.4063" y="585.2604"/><text fill="#000000" font-family="Arial" font-size="21.25" lengthAdjust="spacing" textLength="96.839" x="241.7188" y="614.0468">TaxaFrete</text></g><!--class TaxaEmbalagemPresente--><g class="entity" data-entity="TaxaEmbalagemPresente" data-source-line="36" data-uid="ent0008" id="entity_TaxaEmbalagemPresente"><rect fill="#F1F1F1" height="42.1438" rx="4.4271" ry="4.4271" style="stroke:#181818;stroke-width:0.8854;" width="256.3074" x="376.3021" y="585.2604"/><text fill="#000000" font-family="Arial" font-size="21.25" lengthAdjust="spacing" textLength="245.6824" x="381.6146" y="614.0468">TaxaEmbalagemPresente</text></g><!--class TaxaEntregaExpressa--><g class="entity" data-entity="TaxaEntregaExpressa" data-source-line="37" data-uid="ent0009" id="entity_TaxaEntregaExpressa"><rect fill="#F1F1F1" height="42.1438" rx="4.4271" ry="4.4271" style="stroke:#181818;stroke-width:0.8854;" width="220.8734" x="664.9479" y="585.2604"/><text fill="#000000" font-family="Arial" font-size="21.25" lengthAdjust="spacing" textLength="210.2484" x="670.2604" y="614.0468">TaxaEntregaExpressa</text></g><!--class TaxaSeguro--><g class="entity" data-entity="TaxaSeguro" data-source-line="38" data-uid="ent0010" id="entity_TaxaSeguro"><rect fill="#F1F1F1" height="42.1438" rx="4.4271" ry="4.4271" style="stroke:#181818;stroke-width:0.8854;" width="126.3898" x="918.1771" y="585.2604"/><text fill="#000000" font-family="Arial" font-size="21.25" lengthAdjust="spacing" textLength="115.7648" x="923.4896" y="614.0468">TaxaSeguro</text></g><!--class DescontoCupom--><g class="entity" data-entity="DescontoCupom" data-source-line="39" data-uid="ent0011" id="entity_DescontoCupom"><rect fill="#F1F1F1" height="42.1438" rx="4.4271" ry="4.4271" style="stroke:#181818;stroke-width:0.8854;" width="168.9001" x="1075.7813" y="585.2604"/><text fill="#000000" font-family="Arial" font-size="21.25" lengthAdjust="spacing" textLength="158.2751" x="1081.0938" y="614.0468">DescontoCupom</text></g><!--class FormaPagamento--><g class="entity" data-entity="FormaPagamento" data-source-line="41" data-uid="ent0012" id="entity_FormaPagamento"><rect fill="#F1F1F1" height="129.6167" rx="4.4271" ry="4.4271" style="stroke:#181818;stroke-width:0.8854;" width="319.5178" x="991.6667" y="166.4583"/><text fill="#000000" font-family="Arial" font-size="21.25" font-style="italic" lengthAdjust="spacing" textLength="105.1398" x="1098.8557" y="195.2448">&#171;interface&#187;</text><text fill="#000000" font-family="Arial" font-size="21.25" font-style="italic" lengthAdjust="spacing" textLength="170.083" x="1066.3841" y="219.6802">FormaPagamento</text><line style="stroke:#181818;stroke-width:0.8854;" x1="993.4375" x2="1309.4137" y1="233.0375" y2="233.0375"/><text fill="#000000" font-family="Arial" font-size="21.25" lengthAdjust="spacing" textLength="298.2678" x="1002.2917" y="260.0531">+aplicar(valor : double) : double</text><text fill="#000000" font-family="Arial" font-size="21.25" lengthAdjust="spacing" textLength="207.2705" x="1002.2917" y="284.4885">+getDescricao() : void</text></g><!--class PagamentoCartaoCredito--><g class="entity" data-entity="PagamentoCartaoCredito" data-source-line="46" data-uid="ent0013" id="entity_PagamentoCartaoCredito"><rect fill="#F1F1F1" height="42.1438" rx="4.4271" ry="4.4271" style="stroke:#181818;stroke-width:0.8854;" width="251.5967" x="777.3958" y="397.5521"/><text fill="#000000" font-family="Arial" font-size="21.25" lengthAdjust="spacing" textLength="240.9717" x="782.7083" y="426.3385">PagamentoCartaoCredito</text></g><!--class PagamentoBoleto--><g class="entity" data-entity="PagamentoBoleto" data-source-line="47" data-uid="ent0014" id="entity_PagamentoBoleto"><rect fill="#F1F1F1" height="42.1438" rx="4.4271" ry="4.4271" style="stroke:#181818;stroke-width:0.8854;" width="179.5667" x="1061.6146" y="397.5521"/><text fill="#000000" font-family="Arial" font-size="21.25" lengthAdjust="spacing" textLength="168.9417" x="1066.9271" y="426.3385">PagamentoBoleto</text></g><!--class PagamentoPix--><g class="entity" data-entity="PagamentoPix" data-source-line="48" data-uid="ent0015" id="entity_PagamentoPix"><rect fill="#F1F1F1" height="42.1438" rx="4.4271" ry="4.4271" style="stroke:#181818;stroke-width:0.8854;" width="148.833" x="1273.2292" y="397.5521"/><text fill="#000000" font-family="Arial" font-size="21.25" lengthAdjust="spacing" textLength="138.208" x="1278.5417" y="426.3385">PagamentoPix</text></g><!--class PagamentoDinheiro--><g class="entity" data-entity="PagamentoDinheiro" data-source-line="49" data-uid="ent0016" id="entity_PagamentoDinheiro"><rect fill="#F1F1F1" height="42.1438" rx="4.4271" ry="4.4271" style="stroke:#181818;stroke-width:0.8854;" width="198.4509" x="1453.8542" y="397.5521"/><text fill="#000000" font-family="Arial" font-size="21.25" lengthAdjust="spacing" textLength="187.8259" x="1459.1667" y="426.3385">PagamentoDinheiro</text></g><g class="link" data-entity-1="Calculavel" data-entity-2="Pedido" data-uid="lnk17" id="link_Calculavel_Pedido"><polygon fill="none" points="513.0704,286.8763,479.5859,289.6499,487.947,309.1859,513.0704,286.8763" style="stroke:#181818;stroke-width:1.7708;"/><path d="M483.7665,299.4179 C430.6958,322.1313 398.1651,336.0539 344.164,359.1655" fill="none" style="stroke:#181818;stroke-width:1.7708;stroke-dasharray:12.3958,12.3958;"/></g><g class="link" data-entity-1="Calculavel" data-entity-2="PedidoDecorator" data-uid="lnk18" id="link_Calculavel_PedidoDecorator"><polygon fill="none" points="627.8694,295.7292,616.0108,327.1661,637.2447,327.9939,627.8694,295.7292" style="stroke:#181818;stroke-width:1.7708;"/><path d="M626.6278,327.58 C625.5635,354.8811 627.2806,354.1541 629.2959,378.0393" fill="none" style="stroke:#181818;stroke-width:1.7708;stroke-dasharray:12.3958,12.3958;"/></g><g class="link" data-entity-1="PedidoDecorator" data-entity-2="Calculavel" data-uid="lnk19" id="link_PedidoDecorator_Calculavel"><polygon fill="none" points="649.2457,378.0393,657.1973,368.0475,651.0323,356.8646,643.0808,366.8564,649.2457,378.0393" style="stroke:#181818;stroke-width:1.7708;"/><path d="M651.0323,356.8646 C653.0476,332.9793 651.7365,323.0303 650.6722,295.7292" fill="none" style="stroke:#181818;stroke-width:1.7708;"/></g><g class="link" data-entity-1="Pedido" data-entity-2="ItemPedido" data-uid="lnk20" id="link_Pedido_ItemPedido"><polygon fill="#181818" points="180.0752,478.3391,168.9881,484.6746,170.572,497.3457,181.6591,491.0102,180.0752,478.3391" style="stroke:#181818;stroke-width:1.7708;"/><path d="M170.572,497.3457 C160.5506,517.3885 158.7669,520.9559 148.5336,541.4223" fill="none" style="stroke:#181818;stroke-width:1.7708;"/><text fill="#000000" font-family="Arial" font-size="21.25" lengthAdjust="spacing" textLength="31.8958" x="114.8878" y="536.5629">1..*</text></g><g class="link" data-entity-1="PedidoDecorator" data-entity-2="TaxaFrete" data-uid="lnk21" id="link_PedidoDecorator_TaxaFrete"><polygon fill="none" points="532.797,457.1842,499.2356,458.776,506.9029,478.5945,532.797,457.1842" style="stroke:#181818;stroke-width:1.7708;"/><path d="M503.0692,468.6853 C449.0032,489.6022 413.2821,507.1022 359.4792,541.875 C340.6877,554.0199 322.087,571.3388 308.932,584.7243" fill="none" style="stroke:#181818;stroke-width:1.7708;"/></g><g class="link" data-entity-1="PedidoDecorator" data-entity-2="TaxaEmbalagemPresente" data-uid="lnk22" id="link_PedidoDecorator_TaxaEmbalagemPresente"><polygon fill="none" points="610.7292,459.6299,583.3439,479.0966,600.5009,491.6344,610.7292,459.6299" style="stroke:#181818;stroke-width:1.7708;"/><path d="M591.9224,485.3655 C563.8363,523.7991 540.895,555.1924 519.1062,585.0087" fill="none" style="stroke:#181818;stroke-width:1.7708;"/></g><g class="link" data-entity-1="PedidoDecorator" data-entity-2="TaxaEntregaExpressa" data-uid="lnk23" id="link_PedidoDecorator_TaxaEntregaExpressa"><polygon fill="none" points="668.188,459.6299,678.6158,491.57,695.6943,478.9253,668.188,459.6299" style="stroke:#181818;stroke-width:1.7708;"/><path d="M687.155,485.2477 C715.6107,523.6813 738.9411,555.1924 761.0165,585.0087" fill="none" style="stroke:#181818;stroke-width:1.7708;"/></g><g class="link" data-entity-1="PedidoDecorator" data-entity-2="TaxaSeguro" data-uid="lnk24" id="link_PedidoDecorator_TaxaSeguro"><polygon fill="none" points="722.0201,459.7215,746.3611,482.8822,755.3894,463.6455,722.0201,459.7215" style="stroke:#181818;stroke-width:1.7708;"/><path d="M750.8753,473.2639 C764.0545,479.4492 748.6929,472.2104 761.4583,478.125 C823.4544,506.8498 843.0234,506.292 901.3542,541.875 C922.1139,554.5389 943.6483,571.8172 959.0897,585.0551" fill="none" style="stroke:#181818;stroke-width:1.7708;"/></g><g class="link" data-entity-1="PedidoDecorator" data-entity-2="DescontoCupom" data-uid="lnk25" id="link_PedidoDecorator_DescontoCupom"><polygon fill="none" points="715.0755,459.5502,739.7431,482.3629,748.4972,462.9998,715.0755,459.5502" style="stroke:#181818;stroke-width:1.7708;"/><path d="M744.1201,472.6813 C759.2315,479.5132 746.1292,472.9489 761.4583,478.125 C889.5756,521.3855 933.5852,491.2086 1058.9583,541.875 C1086.1382,552.859 1114.2216,570.9997 1133.8436,584.9781" fill="none" style="stroke:#181818;stroke-width:1.7708;"/></g><g class="link" data-entity-1="FormaPagamento" data-entity-2="PagamentoCartaoCredito" data-uid="lnk26" id="link_FormaPagamento_PagamentoCartaoCredito"><polygon fill="none" points="1066.4162,295.7292,1034.4928,306.2079,1047.1647,323.2662,1066.4162,295.7292" style="stroke:#181818;stroke-width:1.7708;"/><path d="M1040.8288,314.737 C993.1361,350.1659 962.3647,373.0246 929.8809,397.1554" fill="none" style="stroke:#181818;stroke-width:1.7708;stroke-dasharray:12.3958,12.3958;"/></g><g class="link" data-entity-1="FormaPagamento" data-entity-2="PagamentoBoleto" data-uid="lnk27" id="link_FormaPagamento_PagamentoBoleto"><polygon fill="none" points="1151.0417,295.7292,1140.4167,327.6042,1161.6667,327.6042,1151.0417,295.7292" style="stroke:#181818;stroke-width:1.7708;"/><path d="M1151.0417,327.6042 C1151.0417,363.033 1151.0417,373.0246 1151.0417,397.1554" fill="none" style="stroke:#181818;stroke-width:1.7708;stroke-dasharray:12.3958,12.3958;"/></g><g class="link" data-entity-1="FormaPagamento" data-entity-2="PagamentoPix" data-uid="lnk28" id="link_FormaPagamento_PagamentoPix"><polygon fill="none" points="1218.1376,295.7292,1234.1335,325.2764,1248.6626,309.7693,1218.1376,295.7292" style="stroke:#181818;stroke-width:1.7708;"/><path d="M1241.3981,317.5229 C1279.2116,352.9517 1300.6355,373.0246 1326.3905,397.1554" fill="none" style="stroke:#181818;stroke-width:1.7708;stroke-dasharray:12.3958,12.3958;"/></g><g class="link" data-entity-1="FormaPagamento" data-entity-2="PagamentoDinheiro" data-uid="lnk29" id="link_FormaPagamento_PagamentoDinheiro"><polygon fill="none" points="1297.5961,295.9299,1322.4945,318.4904,1331.0511,299.0393,1297.5961,295.9299" style="stroke:#181818;stroke-width:1.7708;"/><path d="M1326.7728,308.7648 C1371.9748,328.6494 1392.5949,338.1622 1437.9167,359.4792 C1463.7949,371.651 1492.571,386.039 1514.8775,397.3841" fill="none" style="stroke:#181818;stroke-width:1.7708;stroke-dasharray:12.3958,12.3958;"/></g><g class="link" data-entity-1="SimuladorDeCompra" data-entity-2="Calculavel" data-uid="lnk30" id="link_SimuladorDeCompra_Calculavel"><polygon fill="#181818" points="736.147,166.4207,753.3714,163.6823,743.5731,161.5989,745.6565,151.8006,736.147,166.4207" style="stroke:#181818;stroke-width:1.7708;"/><path d="M833.8394,102.9885 C804.6781,121.9231 777.8845,139.3203 745.0583,160.6345" fill="none" style="stroke:#181818;stroke-width:1.7708;stroke-dasharray:12.3958,12.3958;"/></g><g class="link" data-entity-1="SimuladorDeCompra" data-entity-2="FormaPagamento" data-uid="lnk31" id="link_SimuladorDeCompra_FormaPagamento"><polygon fill="#181818" points="1053.4928,166.4207,1043.9372,151.8307,1046.0515,161.6224,1036.2598,163.7367,1053.4928,166.4207" style="stroke:#181818;stroke-width:1.7708;"/><path d="M955.1219,102.9885 C984.4857,121.9231 1011.509,139.3484 1044.5633,160.6627" fill="none" style="stroke:#181818;stroke-width:1.7708;stroke-dasharray:12.3958,12.3958;"/></g><!--SRC=[XLHDYzim4BtxLwZRIxebfkcbi8J0RhA1XL82ARsK7YRon14hQToHd6RRxN-lP9j4SJvwa-SzlNcQD_XDnL0Q41fUgFR26VHW8NFFobR0O4HHAJ7wz26f6B8aDqm6XUSQ4yHjeA1VofPY3TgbYDJWtBtth5QrnoT9Tgb-eqXb2rn3hVsShFy2GVkU5UZpU7Dtz37Rg0A5L2mrjcSqbNyH1iqAsMLPqrKibQbrCCOpd989xnL_CY7U2mFA3e1B9-x4CZYpvVSVxy9vIwh8_cQPiXvv3HB55BGC4blKOZpUboUJJaYsC7y3JJo84WNLg-0fWYNw6Jh9IW8rMDigDcZjBR1G1JLIGw4yskZdit9-_EJHjEYaaO92IKKME0A3G3M1UI2btblf0zR9snZQtaAiL8oIKiT3yRC6wrK1HQI6rqOzM3dF8Br8FS_2LGPFtAY_5LNRwYwPry7BLzZ1dD5ZylreLg2X32OP7TfZp7h64XvtmQ5pa21BB6kchX1d6pQ2fdL59iriJcnW0MLOfG2VpGqg7LBXmJRcjf_1__8x7l6-mnJO0qqvpC1J7tmWZQVLXThrIpDbDwZ2wx9qvrxpl1lvXV8-YQoV30s7QHpTDjo6wiqepszlaXt9JYwFNmFl4Dn5-3J7ozHUh1U9NSfdyLxe_QYRkPpFvIgrI-ag9sPsbN18yFI_a-UJD8ppX6FrVm00]--></g></svg>